HIERARCHY
ROOT root
{
	OFFSET 0.000000 0.000000 0.000000
	CHANNELS 6 Xposition Yposition Zposition Zrotation Yrotation Xrotation
	JOINT lhip
	{
		OFFSET 0.058581 -0.082280 -0.017664
		CHANNELS 3 Zrotation Yrotation Xrotation
		JOINT lknee
		{
			OFFSET 0.043451 -0.386469 0.008037
			CHANNELS 3 Zrotation Yrotation Xrotation
			JOINT lankle
			{
				OFFSET -0.014790 -0.426874 -0.037428
				CHANNELS 3 Zrotation Yrotation Xrotation
				JOINT ltoe
				{
					OFFSET 0.041054 -0.060286 0.122042
					CHANNELS 3 Zrotation Yrotation Xrotation
					End Site
					{
						OFFSET 0.000000 0.000000 0.000000
					}
				}
			}
		}
	}
	JOINT rhip
	{
		OFFSET -0.060310 -0.090513 -0.013543
		CHANNELS 3 Zrotation Yrotation Xrotation
		JOINT rknee
		{
			OFFSET -0.043257 -0.383688 -0.004843
			CHANNELS 3 Zrotation Yrotation Xrotation
			JOINT rankle
			{
				OFFSET 0.019056 -0.420046 -0.034562
				CHANNELS 3 Zrotation Yrotation Xrotation
				JOINT rtoe
				{
					OFFSET -0.034840 -0.062106 0.130323
					CHANNELS 3 Zrotation Yrotation Xrotation
					End Site
					{
						OFFSET 0.000000 0.000000 0.000000
					}
				}
			}
		}
	}
	JOINT lowerback
	{
		OFFSET 0.004439 0.124404 -0.038385
		CHANNELS 3 Zrotation Yrotation Xrotation
		JOINT upperback
		{
			OFFSET 0.004488 0.137956 0.026820
			CHANNELS 3 Zrotation Yrotation Xrotation
			JOINT chest
			{
				OFFSET -0.002265 0.056032 0.002855
				CHANNELS 3 Zrotation Yrotation Xrotation
				JOINT lowerneck
				{
					OFFSET -0.013390 0.211636 -0.033468
					CHANNELS 3 Zrotation Yrotation Xrotation
					JOINT upperneck
					{
						OFFSET 0.010113 0.088937 0.050410
						CHANNELS 3 Zrotation Yrotation Xrotation
						End Site
						{
							OFFSET 0.000000 0.000000 0.000000
						}
					}
				}
				JOINT lclavicle
				{
					OFFSET 0.071702 0.114000 -0.018898
					CHANNELS 3 Zrotation Yrotation Xrotation
					JOINT lshoulder
					{
						OFFSET 0.122921 0.045205 -0.019046
						CHANNELS 3 Zrotation Yrotation Xrotation
						JOINT lelbow
						{
							OFFSET 0.255332 -0.015649 -0.022946
							CHANNELS 3 Zrotation Yrotation Xrotation
							JOINT lwrist
							{
								OFFSET 0.265709 0.012698 -0.007375
								CHANNELS 3 Zrotation Yrotation Xrotation
								End Site
								{
									OFFSET 0.000000 0.000000 0.000000
								}
							}
						}
					}
				}
				JOINT rclavicle
				{
					OFFSET -0.082954 0.112472 -0.023707
					CHANNELS 3 Zrotation Yrotation Xrotation
					JOINT rshoulder
					{
						OFFSET -0.113228 0.046853 -0.008472
						CHANNELS 3 Zrotation Yrotation Xrotation
						JOINT relbow
						{
							OFFSET -0.260127 -0.014369 -0.031269
							CHANNELS 3 Zrotation Yrotation Xrotation
							JOINT rwrist
							{
								OFFSET -0.269108 0.006794 -0.006027
								CHANNELS 3 Zrotation Yrotation Xrotation
								End Site
								{
									OFFSET 0.000000 0.000000 0.000000
								}
							}
						}
					}
				}
			}
		}
	}
}
MOTION
Frames: 15
Frame Time: 0.033333
-0.320414 0.417094 1.227137 -71.933413 4.437203 82.356757 4.552638 -0.720845 -24.954381 -5.119159 -4.253207 14.037506 -10.063443 8.284768 9.406700 0.000000 -0.000000 0.000000 -2.440948 -3.293183 -28.937618 -1.156624 -6.829668 26.692783 10.031236 -8.341832 3.041940 0.000000 -0.000000 0.000000 2.327806 2.258311 31.036809 -4.605517 4.279485 -0.137817 0.008856 3.696150 1.124743 -6.486966 -15.827240 15.978910 10.310569 -3.971530 -18.053855 -9.104615 5.891290 5.138778 -36.396705 22.338417 12.311196 -17.788056 -53.161555 31.352626 2.116068 -19.881472 -10.835941 -7.009269 10.243100 -3.073878 15.061060 0.621960 -8.507189 -18.134753 39.469029 -16.883628 2.705437 11.346265 5.595652 
-0.423027 0.403555 1.163981 -72.753202 3.467964 81.483356 4.592159 -3.103995 -22.382238 -4.353364 -6.657550 11.804262 -9.669406 8.111371 12.009201 0.000000 -0.000000 0.000000 -3.057170 -4.086165 -25.104988 -1.365837 -6.282511 23.481510 10.374561 -9.838132 14.083974 0.000000 -0.000000 0.000000 1.725713 4.230546 27.402740 -4.371574 4.904635 1.858125 0.096011 3.876767 0.955349 -6.485073 -16.616362 18.247979 10.255296 -4.340149 -18.595093 -5.586967 7.431345 7.753647 -38.356297 25.562289 13.998173 -25.592006 -58.269288 40.796885 5.356369 -19.752274 -18.965174 -10.406338 10.258460 -4.329159 14.920692 4.790391 -10.781023 -24.029924 38.119208 -23.709851 1.513940 10.570620 4.290331 
-0.527630 0.388667 1.090015 -72.154713 2.767313 80.033860 3.821669 -4.800724 -20.390468 -5.358448 -8.156320 15.152253 -9.721459 7.413342 12.493443 0.000000 -0.000000 0.000000 -3.941454 -4.274429 -20.878077 -1.094281 -3.619833 24.817080 9.668372 -8.774490 16.968748 0.000000 -0.000000 0.000000 1.418539 6.007299 24.561482 -3.548993 5.021985 3.059903 0.483019 3.983285 1.009211 -6.222047 -17.209149 18.889038 9.567909 -5.415799 -18.348146 -2.923633 7.987578 8.770986 -42.163398 27.365271 14.663017 -34.567634 -64.236057 52.884682 7.577517 -19.492534 -24.656156 -12.872779 10.028427 -5.999693 14.972136 8.184285 -12.491958 -30.437570 41.640339 -26.962696 2.058158 9.902736 5.470592 
-0.628839 0.375340 1.007900 -69.969863 3.029404 78.860329 2.449923 -5.173469 -20.478597 -7.823972 -10.431787 25.259135 -3.187614 7.084986 2.100173 0.000000 -0.000000 0.000000 -4.025472 -3.440042 -18.315120 1.080575 0.520146 35.372686 5.326713 -6.696873 -3.337775 0.000000 -0.000000 0.000000 1.878025 6.053733 23.177257 -2.781677 4.990042 1.182453 0.502826 3.682396 2.489404 -3.995589 -17.272978 15.854512 7.236509 -7.318772 -16.222846 -2.225879 9.041839 7.613253 -47.447842 27.091103 13.562103 -43.827615 -69.557810 66.057278 10.459370 -16.911505 -30.187292 -13.800124 9.757280 -8.298080 15.725310 12.448615 -13.366140 -37.360898 47.360593 -30.135167 1.618930 9.919895 3.952989 
-0.715906 0.366399 0.937141 -66.567870 4.021073 78.366973 1.280022 -6.556824 -24.744400 -9.714297 -9.669184 43.610624 5.348543 8.525932 -15.014437 0.000000 -0.000000 0.000000 -3.004073 -2.154510 -18.046429 1.675636 -1.231731 49.885866 1.087406 -9.778035 -25.375256 0.000000 -0.000000 0.000000 2.946806 4.571334 25.298563 -2.402563 4.756366 -2.402826 -0.052500 3.283379 3.590537 0.095298 -17.270004 7.444792 3.539434 -9.468652 -11.142029 -7.244184 10.301823 3.635862 -53.039901 21.956851 12.552960 -38.479989 -72.994060 61.657464 11.884117 -13.827939 -35.513642 -9.219532 9.422475 -10.618217 15.234748 17.897589 -12.660824 -50.379989 53.913450 -38.600742 0.303225 10.427928 2.732645 
-0.789449 0.359364 0.902636 -63.574913 3.025751 78.115690 0.795663 -9.004442 -26.735628 -10.570547 -5.839352 56.205791 6.096610 8.716022 -23.977510 0.000000 -0.000000 0.000000 -3.222792 -2.373507 -17.833449 -0.763681 -3.949106 61.359661 2.311810 -10.490865 -31.887408 0.000000 -0.000000 0.000000 2.790364 4.708662 29.127185 -2.830595 4.015406 -3.157307 -0.935515 3.561094 1.859176 2.601851 -17.902140 -0.483737 3.311446 -11.384346 -7.721717 -17.120052 5.899452 -1.361597 -56.782652 12.414803 11.938061 -11.035643 -69.956252 29.493402 10.550483 -13.979976 -32.696759 -0.534097 11.532934 -9.669894 17.645780 17.752214 -9.934742 -77.611850 59.523381 -60.510914 -1.367859 11.300648 4.451803 
-0.859541 0.353517 0.894271 -62.336291 1.328856 79.586901 0.954812 -6.645415 -24.591041 -11.310227 -4.886061 58.584975 8.584677 7.882199 -31.573528 0.000000 -0.000000 0.000000 -4.188853 -2.847843 -18.677769 -0.645582 -4.241730 69.558529 4.614473 -8.788550 -29.767193 0.000000 -0.000000 0.000000 1.880616 6.085651 29.146461 -3.035226 3.905958 -2.420720 -2.086151 3.173954 1.605876 3.662723 -17.033797 -7.283853 3.964525 -13.874566 -5.632360 -23.809676 -1.454353 -1.849802 -58.393283 1.762637 12.793409 3.255026 -64.907689 12.434418 12.423943 -14.301055 -26.283027 6.775723 12.844896 -6.926633 26.875302 16.820741 -2.327429 -98.798516 62.222858 -77.156963 -3.582169 13.698721 4.579704 
-0.926669 0.348609 0.897505 -59.917170 0.842441 82.610741 2.922093 -5.858824 -22.485989 -12.191960 -4.979689 57.141910 10.137871 7.071237 -36.173190 0.000000 -0.000000 0.000000 -5.966388 -3.015107 -22.841792 0.434279 -6.661905 76.953191 6.834063 -4.587994 -19.785956 0.000000 -0.000000 0.000000 0.452423 5.405183 28.438191 -2.352907 2.940561 -2.548922 -1.805206 2.262094 -0.095254 2.454159 -15.786600 -10.474723 4.221066 -14.183470 -4.743100 -24.258654 -7.374791 -0.649800 -61.029743 -3.681791 17.233622 9.420236 -69.121500 7.792721 15.679533 -13.448489 -26.690553 11.259295 15.337389 -4.386871 36.745458 14.562293 5.644994 -93.772905 69.657204 -70.499468 -1.663966 14.405384 2.709490 
-0.991843 0.344841 0.904657 -56.465974 1.175569 85.463589 5.286253 -5.703537 -21.545523 -13.185115 -6.485682 57.022820 9.067514 5.687417 -36.664234 0.000000 -0.000000 0.000000 -7.739941 -4.413352 -27.523567 -0.087056 -10.098643 80.294942 7.053705 -3.749661 -15.519448 0.000000 -0.000000 0.000000 -0.124723 3.077419 29.056749 -0.965341 1.605489 -3.504926 -1.361321 1.918825 -1.253673 1.337318 -13.430074 -14.628819 3.819814 -15.691816 -3.710742 -22.164552 -10.606341 -0.168937 -61.997992 -9.724420 21.492305 5.327418 -78.731978 16.019268 16.279012 -15.553397 -29.580430 14.996534 17.108434 -1.814870 44.017032 12.519731 10.329084 -58.878805 71.006931 -35.481100 -0.814773 14.987628 3.239285 
-1.056990 0.343131 0.912928 -54.776420 1.524126 87.427583 7.432859 -4.908110 -20.821665 -13.874403 -8.394147 58.875163 5.459474 3.707031 -34.137727 0.000000 -0.000000 0.000000 -8.939956 -5.312696 -32.022098 -3.316305 -12.868724 79.772777 5.480751 -6.633198 -18.691341 0.000000 -0.000000 0.000000 -0.285973 1.622332 31.243364 0.229508 1.252286 -4.348872 -0.474178 1.631224 -2.240436 -0.052287 -10.851191 -18.921984 3.690965 -17.855144 -3.628156 -20.103762 -13.862486 0.166092 -60.952802 -16.136715 23.106996 1.234800 -88.926637 25.215260 15.643759 -15.811408 -27.949256 19.444309 19.109397 1.201407 48.325901 9.394168 11.102861 -40.648127 61.261951 -19.701996 -3.721031 14.326798 0.961908 
-1.123625 0.341167 0.918336 -55.034528 1.639124 88.797750 9.496651 -4.169340 -18.847885 -14.989660 -10.774336 60.060180 1.329581 1.891943 -31.200849 0.000000 -0.000000 0.000000 -10.154229 -5.507326 -37.249313 -5.188511 -14.334306 76.742400 4.659850 -7.131484 -21.414727 0.000000 -0.000000 0.000000 -0.402287 1.175156 33.666515 1.251998 1.664094 -4.430065 0.705239 0.824590 -3.199830 -1.851225 -8.209874 -22.801150 3.547436 -19.547597 -4.141419 -18.753765 -16.868902 0.077145 -57.854315 -22.134104 23.313926 163.573023 -80.267233 -135.291440 17.860729 -14.756969 -28.315118 24.360977 19.661428 3.469074 50.159501 6.912377 9.909139 -38.329567 50.691744 -22.562974 -7.600308 12.002348 -4.129813 
-1.193228 0.336000 0.917590 -55.967326 1.671752 90.296194 11.381103 -3.376752 -15.123547 -16.040168 -14.045781 58.818475 -1.529305 1.018071 -30.112898 0.000000 -0.000000 0.000000 -11.548792 -6.052380 -43.146242 -4.448787 -15.442532 71.790966 5.486386 -5.423726 -23.567466 0.000000 -0.000000 0.000000 -0.356084 0.143374 35.017782 2.145154 2.007970 -4.287920 1.648004 -0.141099 -3.804032 -3.219919 -5.373451 -25.575792 3.076459 -19.844760 -4.704804 -17.337195 -17.627379 -0.765063 -53.876689 -27.763122 21.161514 160.063229 -68.464750 -132.046220 20.944893 -13.841718 -31.082183 27.335640 17.346359 4.433917 51.227544 3.802872 8.748802 -41.418368 47.751739 -29.215415 -10.712743 9.523782 -9.472381 
-1.266464 0.327325 0.911935 -56.632435 1.561700 91.940656 13.030033 -2.352634 -9.297336 -15.010112 -17.449484 53.960593 -4.460831 -0.594710 -31.010136 0.000000 -0.000000 0.000000 -13.024330 -7.917580 -49.037187 -4.989323 -17.665529 66.808480 6.163401 -2.219144 -25.021049 0.000000 -0.000000 0.000000 0.039529 -2.404768 36.047216 2.460854 1.878432 -5.025571 2.465523 -0.577640 -4.298944 -4.842769 -2.591460 -26.924078 3.935076 -19.548326 -4.941672 -13.526040 -15.778713 -3.492015 -53.066651 -31.649245 18.159381 157.005042 -56.700210 -126.569951 21.177599 -15.438891 -33.387863 25.664303 12.067440 4.441067 53.391813 -3.001474 6.656261 -47.735396 58.661668 -31.745029 -12.956324 10.779740 -13.995844 
-1.344876 0.318333 0.904395 -57.321891 1.535860 95.060609 15.708811 -0.710730 -3.076605 -14.004984 -21.171698 45.482856 -6.267409 -1.067983 -31.577183 0.000000 -0.000000 0.000000 -13.648333 -9.960751 -55.474675 -5.602652 -20.711120 61.367559 7.130336 -1.638397 -25.806473 0.000000 -0.000000 0.000000 0.527009 -6.355815 34.057922 3.058883 2.435236 -6.731979 2.637183 -0.868486 -2.741897 -5.839381 -1.605526 -26.180000 4.939642 -17.520689 -6.793324 -8.906576 -10.088470 -5.030501 -53.380608 -35.308815 13.890298 159.073984 -47.743140 -127.829779 22.201187 -16.702542 -34.208838 20.424815 3.823871 4.088956 54.548209 -11.318898 8.478021 -67.422360 74.972270 -44.629224 -13.889392 13.470309 -18.506281 
-1.431685 0.309019 0.902038 -59.319566 1.542424 98.133698 18.423982 1.442922 4.694537 -12.121830 -24.976350 34.479802 -10.195497 -0.991946 -27.090175 0.000000 -0.000000 0.000000 -13.154195 -9.958292 -60.032776 -4.878596 -23.045194 54.820441 7.220186 -2.885013 -26.063180 0.000000 -0.000000 0.000000 2.737797 -8.386226 31.641991 1.817769 1.850200 -9.374573 4.095480 -2.610760 -1.184501 -6.975181 -1.850060 -23.043670 5.499181 -13.509212 -9.292064 -4.321366 -4.523564 -5.228316 -53.636422 -32.465187 10.100931 165.081127 -41.470413 -134.388215 22.074487 -18.080486 -37.129433 11.922380 -2.228046 5.502837 54.990699 -19.606745 8.281306 -167.397147 83.091844 -142.803941 -14.623518 16.081159 -20.325337 
